<?xml version="1.0" standalone="no"?>
<!DOCTYPE svg PUBLIC "-//W3C//DTD SVG 20010904//EN"
 "http://www.w3.org/TR/2001/REC-SVG-20010904/DTD/svg10.dtd">
<svg version="1.0" xmlns="http://www.w3.org/2000/svg"
 width="135.000000pt" height="26.000000pt" viewBox="0 0 135.000000 26.000000"
 preserveAspectRatio="xMidYMid meet">

<g transform="translate(0.000000,26.000000) scale(0.100000,-0.100000)"
fill="#000000" stroke="none">
<path d="M0 130 c0 -123 1 -130 20 -130 18 0 20 7 20 55 l0 55 44 0 c40 0 56
11 56 36 0 2 -23 4 -51 4 l-50 0 3 33 c3 31 4 32 56 35 35 2 52 7 52 16 0 16
-43 26 -106 26 l-44 0 0 -130z"/>
<path d="M242 243 c-34 -17 -49 -36 -62 -84 -10 -34 6 -99 24 -99 21 0 25 10
14 41 -30 88 84 155 141 83 20 -26 51 -32 51 -11 0 21 -29 56 -60 72 -37 19
-67 19 -108 -2z"/>
<path d="M450 130 l0 -130 43 0 c31 0 49 6 61 19 17 19 17 20 -21 23 -36 3
-38 5 -41 41 l-3 37 40 0 c28 0 48 -7 61 -20 19 -19 20 -19 31 1 7 14 7 25 1
31 -5 5 -8 27 -5 47 7 55 -28 81 -108 81 l-59 0 0 -130z m120 75 c21 -26 4
-45 -40 -45 -38 0 -40 2 -40 30 0 27 3 30 34 30 18 0 39 -7 46 -15z"/>
<path d="M660 130 l0 -130 25 0 c24 0 25 3 25 58 l1 57 27 -34 c59 -76 67 -83
91 -79 23 3 23 4 -13 47 -34 41 -36 45 -19 54 30 16 43 39 43 78 0 56 -34 79
-116 79 l-64 0 0 -130z m124 74 c35 -34 9 -74 -48 -74 -24 0 -26 3 -26 45 0
43 1 45 29 45 16 0 37 -7 45 -16z"/>
<path d="M890 130 l0 -130 85 0 c78 0 85 2 85 20 0 18 -7 20 -60 20 l-60 0 0
35 0 35 55 0 c48 0 55 2 55 20 0 18 -7 20 -55 20 l-55 0 0 35 0 35 55 0 c48 0
55 2 55 20 0 18 -7 20 -80 20 l-80 0 0 -130z"/>
<path d="M1107 253 c-4 -3 -7 -62 -7 -130 l0 -123 65 0 c77 0 118 17 145 63
40 65 13 154 -55 183 -35 14 -136 20 -148 7z m132 -48 c33 -17 41 -33 41 -84
0 -49 -25 -72 -85 -78 l-45 -6 0 92 0 91 30 0 c17 0 44 -7 59 -15z"/>
</g>
</svg>
